<svg id="Layer_3" enable-background="new 0 0 64 64" height="512" viewBox="0 0 64 64" width="512" xmlns="http://www.w3.org/2000/svg"><path d="m52.604 47.031c1.301-1.039 2.303-2.432 2.871-4.031h.525c2.206 0 4-1.794 4-4 0-1.474-.81-2.75-2-3.444v-4.556c0-4.411-3.589-8-8-8h-6c-4.411 0-8 3.589-8 8v4.556c-1.19.694-2 1.97-2 3.444 0 2.206 1.794 4 4 4h.525c.568 1.599 1.57 2.991 2.871 4.031-5.784.316-10.396 5.107-10.396 10.969v4c0 .553.448 1 1 1h30c.552 0 1-.447 1-1v-4c0-5.862-4.612-10.653-10.396-10.969zm-10.085 1.969 3.141 3.926-3.046 3.046-1.387-6.933c.256-.022.512-.039.773-.039zm6.4 0-1.919 2.399-1.919-2.399zm2.562 0h.519c.261 0 .517.017.772.039l-1.387 6.933-3.046-3.046zm4.519-8h-.059c.037-.329.059-.662.059-1v-3c1.103 0 2 .897 2 2s-.897 2-2 2zm-18-10c0-3.309 2.691-6 6-6h6c3.309 0 6 2.691 6 6v4h-1-3c-1.103 0-2-.897-2-2v-3-1h-2v1c0 2.757-2.243 5-5 5h-4-1zm0 10c-1.103 0-2-.897-2-2s.897-2 2-2v3c0 .338.022.671.059 1zm2-1v-3h3c2.124 0 4.027-.955 5.312-2.454.606 1.44 2.03 2.454 3.688 2.454h2v3c0 3.859-3.14 7-7 7s-7-3.141-7-7zm21 21h-28v-3c0-4.009 2.637-7.412 6.266-8.572l1.754 8.769c.072.361.338.654.691.761.095.028.192.042.289.042.261 0 .517-.103.707-.293l4.293-4.293 4.293 4.293c.19.19.446.293.707.293.097 0 .194-.014.29-.043.353-.106.619-.399.691-.761l1.754-8.769c3.628 1.161 6.265 4.564 6.265 8.573z"/><path d="m33 40v-4c0-5.862-4.612-10.653-10.396-10.969 1.301-1.039 2.303-2.432 2.871-4.031h.525c2.206 0 4-1.794 4-4 0-1.474-.81-2.75-2-3.444v-4.556c0-4.411-3.589-8-8-8h-6c-4.411 0-8 3.589-8 8v4.556c-1.19.694-2 1.97-2 3.444 0 2.206 1.794 4 4 4h.525c.568 1.599 1.57 2.991 2.871 4.031-5.784.316-10.396 5.107-10.396 10.969v4c0 .553.448 1 1 1h30c.552 0 1-.447 1-1zm-20.481-13 3.141 3.926-3.046 3.046-1.387-6.933c.256-.022.512-.039.773-.039zm6.4 0-1.919 2.399-1.919-2.399zm2.562 0h.519c.261 0 .517.017.772.039l-1.387 6.933-3.046-3.046zm4.519-8h-.059c.037-.329.059-.662.059-1v-3c1.103 0 2 .897 2 2s-.897 2-2 2zm-18-10c0-3.309 2.691-6 6-6h6c3.309 0 6 2.691 6 6v4h-1-3c-1.103 0-2-.897-2-2v-3-1h-2v1c0 2.757-2.243 5-5 5h-4-1zm0 10c-1.103 0-2-.897-2-2s.897-2 2-2v3c0 .338.022.671.059 1zm2-1v-3h3c2.124 0 4.027-.955 5.312-2.454.606 1.44 2.03 2.454 3.688 2.454h2v3c0 3.859-3.14 7-7 7s-7-3.141-7-7zm21 21h-28v-3c0-4.009 2.637-7.412 6.266-8.572l1.754 8.769c.072.361.338.654.691.761.095.028.192.042.289.042.261 0 .517-.103.707-.293l4.293-4.293 4.293 4.293c.19.19.446.293.707.293.097 0 .194-.014.29-.043.353-.106.619-.399.691-.761l1.754-8.769c3.628 1.161 6.265 4.564 6.265 8.573z"/><path d="m29 61c-5.176 0-9.447-3.954-9.95-9h2.95c.404 0 .769-.243.924-.617s.069-.804-.217-1.09l-7-7c-.391-.391-1.023-.391-1.414 0l-7 7c-.286.286-.372.716-.217 1.09s.52.617.924.617h3.042c.509 6.15 5.678 11 11.958 11h6c.552 0 1-.447 1-1s-.448-1-1-1zm-16-10c0-.553-.448-1-1-1h-1.586l4.586-4.586 4.586 4.586h-1.586c-.552 0-1 .447-1 1 0 4.155 2.123 7.824 5.341 9.979-5.208-.341-9.341-4.686-9.341-9.979z"/></svg>